<?xml version="1.0" encoding="UTF-8" standalone="no"?>
<!DOCTYPE svg PUBLIC "-//W3C//DTD SVG 1.1//EN" "http://www.w3.org/Graphics/SVG/1.1/DTD/svg11.dtd">
<svg xmlns="http://www.w3.org/2000/svg" version="1.1" viewBox="0.00 0.00 632.00 441.00" width="632.00" height="441.00">
<g stroke-width="2.00" fill="none" stroke-linecap="butt">
<path stroke="#858c91" vector-effect="non-scaling-stroke" d="
  M 400.47 127.22
  C 367.16 86.67 319.43 63.12 267.24 59.07
  C 237.35 56.75 208.57 60.70 180.90 70.91
  C 150.02 82.32 124.22 100.27 103.50 124.76
  C 77.35 155.67 63.75 191.58 62.71 232.49
  C 62.03 259.36 66.01 285.12 76.09 310.15
  C 76.24 310.53 76.73 310.63 77.03 310.35
  C 92.18 295.88 99.76 276.75 103.12 256.53
  C 105.02 245.10 106.31 237.75 107.00 234.49
  C 113.78 202.37 132.24 172.73 159.25 153.75
  C 168.42 147.30 177.74 142.36 187.19 138.91
  C 199.61 134.38 213.23 131.09 228.04 129.05
  C 256.58 125.12 285.68 132.81 303.50 156.67
  C 303.69 156.93 303.94 157.01 304.25 156.92
  L 400.17 128.22
  C 400.60 128.09 400.75 127.57 400.47 127.22"
/>
<path stroke="#858c91" vector-effect="non-scaling-stroke" d="
  M 294.07 175.11
  C 293.14 172.98 291.78 170.79 289.98 168.54
  C 280.61 156.85 268.98 149.74 255.09 147.19
  C 244.55 145.26 232.66 146.37 222.99 150.73
  C 207.03 157.93 196.09 175.56 193.99 192.50
  C 193.52 196.26 192.55 199.20 190.08 201.60
  C 185.03 206.50 180.95 199.05 180.98 194.75
  C 181.08 180.92 186.45 167.97 195.09 157.05
  C 196.16 155.70 195.88 155.30 194.25 155.87
  C 154.52 169.75 128.33 208.09 122.19 248.50
  C 120.38 260.44 119.01 268.37 118.09 272.29
  C 112.94 294.30 102.17 312.88 85.78 328.03
  C 84.98 328.77 84.84 329.97 85.44 330.87
  C 101.47 354.91 122.46 377.68 147.12 392.37
  C 196.35 421.68 255.15 428.40 309.82 410.88
  C 310.52 410.66 310.99 410.02 310.99 409.29
  C 310.98 397.64 307.03 388.50 299.14 381.87
  C 287.95 372.49 272.54 371.42 260.31 379.62
  C 254.98 383.19 251.00 389.25 248.36 395.05
  C 248.06 395.73 247.21 395.95 246.61 395.52
  C 226.76 381.07 223.87 355.18 238.59 335.88
  C 238.91 335.46 238.68 334.85 238.16 334.75
  C 203.90 327.88 175.15 305.24 171.92 268.50
  C 171.89 268.20 172.03 268.02 172.34 267.97
  L 179.44 266.76
  C 180.01 266.66 180.35 266.89 180.48 267.46
  C 186.84 296.16 210.52 317.00 238.57 322.21
  C 243.12 323.06 249.76 323.46 258.48 323.41
  C 269.39 323.35 280.31 323.33 291.22 323.34
  C 299.15 323.35 304.97 322.96 308.69 322.16
  C 325.12 318.60 338.89 308.85 343.16 291.71
  C 343.35 290.95 342.79 290.20 342.00 290.17
  C 297.91 288.44 257.50 275.55 220.77 251.50
  C 220.33 251.21 220.37 251.07 220.89 251.06
  C 222.11 251.03 223.32 251.08 224.51 251.23
  C 260.05 255.54 295.63 259.42 331.26 262.88
  C 338.83 263.62 346.41 264.28 353.99 264.86
  C 355.34 264.97 356.29 264.30 356.82 262.87
  C 363.98 243.72 361.58 223.13 345.67 209.14
  C 341.00 205.04 336.39 201.52 330.78 199.23
  C 322.93 196.02 315.19 193.03 307.57 190.24"
/>
<path stroke="#ff80a0" vector-effect="non-scaling-stroke" d="
  M 307.57 190.24
  C 306.97 190.31 306.94 189.85 307.48 188.88
  C 307.63 188.61 307.87 188.45 308.19 188.42
  C 311.56 188.11 314.91 188.20 318.25 188.67
  C 333.74 190.88 349.23 193.02 364.73 195.10
  C 411.05 201.29 457.22 208.46 503.23 216.61
  C 531.42 221.60 559.60 226.68 587.76 231.87
  C 591.52 232.56 595.32 233.16 599.16 233.66
  C 603.81 234.27 605.74 230.98 605.73 226.70
  C 605.62 183.69 605.53 140.69 605.48 97.70
  C 605.47 91.51 602.18 89.69 596.33 91.40
  C 527.62 111.55 461.34 130.36 397.51 147.82
  C 380.34 152.51 365.09 156.87 351.78 160.90
  C 341.23 164.09 322.00 168.82 294.07 175.11"
/>
<path stroke="#850d32" vector-effect="non-scaling-stroke" d="
  M 307.57 190.24
  L 275.65 193.18"
/>
<path stroke="#ff80a0" vector-effect="non-scaling-stroke" d="
  M 275.65 193.18
  C 273.73 192.27 271.23 192.53 268.15 193.95
  C 267.79 194.11 267.55 194.48 267.56 194.89
  C 267.61 205.07 259.17 214.19 249.15 215.17
  C 222.44 217.77 216.83 176.18 245.15 173.00
  C 252.85 172.13 259.10 175.42 263.91 182.87
  C 264.08 183.14 264.33 183.24 264.64 183.17
  C 267.83 182.44 269.95 181.81 271.00 181.30
  C 271.71 180.95 272.04 180.55 271.98 180.08"
/>
<path stroke="#850d32" vector-effect="non-scaling-stroke" d="
  M 271.98 180.08
  C 272.18 180.02 272.40 180.04 272.63 180.15
  C 272.92 180.29 273.22 180.32 273.53 180.24
  L 294.07 175.11"
/>
<path stroke="#858c91" vector-effect="non-scaling-stroke" d="
  M 271.98 180.08
  C 257.84 154.33 221.72 160.85 217.33 189.92
  C 213.34 216.35 241.92 234.73 263.83 219.11
  C 272.41 212.99 276.35 204.35 275.65 193.18"
/>
<path stroke="#858c91" vector-effect="non-scaling-stroke" d="
  M 304.28 362.64
  C 318.14 371.31 326.43 384.23 329.14 401.39
  C 329.23 401.93 329.79 402.25 330.30 402.05
  C 347.20 395.30 361.47 385.60 375.02 373.40
  C 416.69 335.91 437.94 280.35 434.39 224.51
  C 434.36 224.10 434.15 223.87 433.74 223.80
  L 371.56 213.62
  C 371.12 213.55 370.80 214.04 371.05 214.41
  C 383.57 233.32 380.83 268.82 361.48 283.46
  C 361.21 283.67 361.07 283.94 361.06 284.29
  C 361.03 288.63 360.98 291.45 360.91 292.74
  C 359.97 309.00 347.67 323.73 334.47 331.71
  C 327.80 335.74 320.21 338.47 311.69 339.91
  C 307.45 340.62 300.80 340.99 291.74 341.00
  C 283.25 341.01 274.76 341.01 266.27 341.00
  C 264.22 340.99 262.46 341.36 260.97 342.11
  C 253.66 345.76 249.24 352.05 247.71 360.98
  C 247.45 362.49 247.52 363.68 247.92 364.53
  C 248.13 364.96 248.42 365.03 248.80 364.73
  C 264.15 352.56 287.81 352.35 304.28 362.64"
/>
<path stroke="#ff80a0" vector-effect="non-scaling-stroke" d="
  M 254.8982 196.3513
  C 259.66 195.15 262.49 190.07 261.2081 185.0068
  C 259.93 179.95 255.03 176.82 250.2618 178.0287
  C 245.50 179.23 242.67 184.31 243.9519 189.3732
  C 245.23 194.43 250.13 197.56 254.8982 196.3513"
/>
<path stroke="#858c91" vector-effect="non-scaling-stroke" d="
  M 337.6357 235.3204
  C 339.34 232.95 338.57 229.48 335.9069 227.5641
  C 333.25 225.65 329.71 226.03 328.0043 228.3996
  C 326.30 230.77 327.07 234.24 329.7331 236.1559
  C 332.39 238.07 335.93 237.69 337.6357 235.3204"
/>
</g>
<path fill="#ffffff" d="
  M 0.00 0.00
  L 632.00 0.00
  L 632.00 441.00
  L 0.00 441.00
  L 0.00 0.00
  Z
  M 400.47 127.22
  C 367.16 86.67 319.43 63.12 267.24 59.07
  C 237.35 56.75 208.57 60.70 180.90 70.91
  C 150.02 82.32 124.22 100.27 103.50 124.76
  C 77.35 155.67 63.75 191.58 62.71 232.49
  C 62.03 259.36 66.01 285.12 76.09 310.15
  C 76.24 310.53 76.73 310.63 77.03 310.35
  C 92.18 295.88 99.76 276.75 103.12 256.53
  C 105.02 245.10 106.31 237.75 107.00 234.49
  C 113.78 202.37 132.24 172.73 159.25 153.75
  C 168.42 147.30 177.74 142.36 187.19 138.91
  C 199.61 134.38 213.23 131.09 228.04 129.05
  C 256.58 125.12 285.68 132.81 303.50 156.67
  C 303.69 156.93 303.94 157.01 304.25 156.92
  L 400.17 128.22
  C 400.60 128.09 400.75 127.57 400.47 127.22
  Z
  M 294.07 175.11
  C 293.14 172.98 291.78 170.79 289.98 168.54
  C 280.61 156.85 268.98 149.74 255.09 147.19
  C 244.55 145.26 232.66 146.37 222.99 150.73
  C 207.03 157.93 196.09 175.56 193.99 192.50
  C 193.52 196.26 192.55 199.20 190.08 201.60
  C 185.03 206.50 180.95 199.05 180.98 194.75
  C 181.08 180.92 186.45 167.97 195.09 157.05
  C 196.16 155.70 195.88 155.30 194.25 155.87
  C 154.52 169.75 128.33 208.09 122.19 248.50
  C 120.38 260.44 119.01 268.37 118.09 272.29
  C 112.94 294.30 102.17 312.88 85.78 328.03
  C 84.98 328.77 84.84 329.97 85.44 330.87
  C 101.47 354.91 122.46 377.68 147.12 392.37
  C 196.35 421.68 255.15 428.40 309.82 410.88
  C 310.52 410.66 310.99 410.02 310.99 409.29
  C 310.98 397.64 307.03 388.50 299.14 381.87
  C 287.95 372.49 272.54 371.42 260.31 379.62
  C 254.98 383.19 251.00 389.25 248.36 395.05
  C 248.06 395.73 247.21 395.95 246.61 395.52
  C 226.76 381.07 223.87 355.18 238.59 335.88
  C 238.91 335.46 238.68 334.85 238.16 334.75
  C 203.90 327.88 175.15 305.24 171.92 268.50
  C 171.89 268.20 172.03 268.02 172.34 267.97
  L 179.44 266.76
  C 180.01 266.66 180.35 266.89 180.48 267.46
  C 186.84 296.16 210.52 317.00 238.57 322.21
  C 243.12 323.06 249.76 323.46 258.48 323.41
  C 269.39 323.35 280.31 323.33 291.22 323.34
  C 299.15 323.35 304.97 322.96 308.69 322.16
  C 325.12 318.60 338.89 308.85 343.16 291.71
  C 343.35 290.95 342.79 290.20 342.00 290.17
  C 297.91 288.44 257.50 275.55 220.77 251.50
  C 220.33 251.21 220.37 251.07 220.89 251.06
  C 222.11 251.03 223.32 251.08 224.51 251.23
  C 260.05 255.54 295.63 259.42 331.26 262.88
  C 338.83 263.62 346.41 264.28 353.99 264.86
  C 355.34 264.97 356.29 264.30 356.82 262.87
  C 363.98 243.72 361.58 223.13 345.67 209.14
  C 341.00 205.04 336.39 201.52 330.78 199.23
  C 322.93 196.02 315.19 193.03 307.57 190.24
  C 306.97 190.31 306.94 189.85 307.48 188.88
  C 307.63 188.61 307.87 188.45 308.19 188.42
  C 311.56 188.11 314.91 188.20 318.25 188.67
  C 333.74 190.88 349.23 193.02 364.73 195.10
  C 411.05 201.29 457.22 208.46 503.23 216.61
  C 531.42 221.60 559.60 226.68 587.76 231.87
  C 591.52 232.56 595.32 233.16 599.16 233.66
  C 603.81 234.27 605.74 230.98 605.73 226.70
  C 605.62 183.69 605.53 140.69 605.48 97.70
  C 605.47 91.51 602.18 89.69 596.33 91.40
  C 527.62 111.55 461.34 130.36 397.51 147.82
  C 380.34 152.51 365.09 156.87 351.78 160.90
  C 341.23 164.09 322.00 168.82 294.07 175.11
  Z
  M 304.28 362.64
  C 318.14 371.31 326.43 384.23 329.14 401.39
  C 329.23 401.93 329.79 402.25 330.30 402.05
  C 347.20 395.30 361.47 385.60 375.02 373.40
  C 416.69 335.91 437.94 280.35 434.39 224.51
  C 434.36 224.10 434.15 223.87 433.74 223.80
  L 371.56 213.62
  C 371.12 213.55 370.80 214.04 371.05 214.41
  C 383.57 233.32 380.83 268.82 361.48 283.46
  C 361.21 283.67 361.07 283.94 361.06 284.29
  C 361.03 288.63 360.98 291.45 360.91 292.74
  C 359.97 309.00 347.67 323.73 334.47 331.71
  C 327.80 335.74 320.21 338.47 311.69 339.91
  C 307.45 340.62 300.80 340.99 291.74 341.00
  C 283.25 341.01 274.76 341.01 266.27 341.00
  C 264.22 340.99 262.46 341.36 260.97 342.11
  C 253.66 345.76 249.24 352.05 247.71 360.98
  C 247.45 362.49 247.52 363.68 247.92 364.53
  C 248.13 364.96 248.42 365.03 248.80 364.73
  C 264.15 352.56 287.81 352.35 304.28 362.64
  Z"
/>
<path fill="#0b1922" d="
  M 267.24 59.07
  C 319.43 63.12 367.16 86.67 400.47 127.22
  C 400.75 127.57 400.60 128.09 400.17 128.22
  L 304.25 156.92
  C 303.94 157.01 303.69 156.93 303.50 156.67
  C 285.68 132.81 256.58 125.12 228.04 129.05
  C 213.23 131.09 199.61 134.38 187.19 138.91
  C 177.74 142.36 168.42 147.30 159.25 153.75
  C 132.24 172.73 113.78 202.37 107.00 234.49
  C 106.31 237.75 105.02 245.10 103.12 256.53
  C 99.76 276.75 92.18 295.88 77.03 310.35
  C 76.73 310.63 76.24 310.53 76.09 310.15
  C 66.01 285.12 62.03 259.36 62.71 232.49
  C 63.75 191.58 77.35 155.67 103.50 124.76
  C 124.22 100.27 150.02 82.32 180.90 70.91
  C 208.57 60.70 237.35 56.75 267.24 59.07
  Z"
/>
<path fill="#ff0141" d="
  M 307.57 190.24
  L 275.65 193.18
  C 273.73 192.27 271.23 192.53 268.15 193.95
  C 267.79 194.11 267.55 194.48 267.56 194.89
  C 267.61 205.07 259.17 214.19 249.15 215.17
  C 222.44 217.77 216.83 176.18 245.15 173.00
  C 252.85 172.13 259.10 175.42 263.91 182.87
  C 264.08 183.14 264.33 183.24 264.64 183.17
  C 267.83 182.44 269.95 181.81 271.00 181.30
  C 271.71 180.95 272.04 180.55 271.98 180.08
  C 272.18 180.02 272.40 180.04 272.63 180.15
  C 272.92 180.29 273.22 180.32 273.53 180.24
  L 294.07 175.11
  C 322.00 168.82 341.23 164.09 351.78 160.90
  C 365.09 156.87 380.34 152.51 397.51 147.82
  C 461.34 130.36 527.62 111.55 596.33 91.40
  C 602.18 89.69 605.47 91.51 605.48 97.70
  C 605.53 140.69 605.62 183.69 605.73 226.70
  C 605.74 230.98 603.81 234.27 599.16 233.66
  C 595.32 233.16 591.52 232.56 587.76 231.87
  C 559.60 226.68 531.42 221.60 503.23 216.61
  C 457.22 208.46 411.05 201.29 364.73 195.10
  C 349.23 193.02 333.74 190.88 318.25 188.67
  C 314.91 188.20 311.56 188.11 308.19 188.42
  C 307.87 188.45 307.63 188.61 307.48 188.88
  C 306.94 189.85 306.97 190.31 307.57 190.24
  Z
  M 254.8982 196.3513
  C 259.66 195.15 262.49 190.07 261.2081 185.0068
  C 259.93 179.95 255.03 176.82 250.2618 178.0287
  C 245.50 179.23 242.67 184.31 243.9519 189.3732
  C 245.23 194.43 250.13 197.56 254.8982 196.3513
  Z"
/>
<path fill="#0b1922" d="
  M 294.07 175.11
  L 273.53 180.24
  C 273.22 180.32 272.92 180.29 272.63 180.15
  C 272.40 180.04 272.18 180.02 271.98 180.08
  C 257.84 154.33 221.72 160.85 217.33 189.92
  C 213.34 216.35 241.92 234.73 263.83 219.11
  C 272.41 212.99 276.35 204.35 275.65 193.18
  L 307.57 190.24
  C 315.19 193.03 322.93 196.02 330.78 199.23
  C 336.39 201.52 341.00 205.04 345.67 209.14
  C 361.58 223.13 363.98 243.72 356.82 262.87
  C 356.29 264.30 355.34 264.97 353.99 264.86
  C 346.41 264.28 338.83 263.62 331.26 262.88
  C 295.63 259.42 260.05 255.54 224.51 251.23
  C 223.32 251.08 222.11 251.03 220.89 251.06
  C 220.37 251.07 220.33 251.21 220.77 251.50
  C 257.50 275.55 297.91 288.44 342.00 290.17
  C 342.79 290.20 343.35 290.95 343.16 291.71
  C 338.89 308.85 325.12 318.60 308.69 322.16
  C 304.97 322.96 299.15 323.35 291.22 323.34
  C 280.31 323.33 269.39 323.35 258.48 323.41
  C 249.76 323.46 243.12 323.06 238.57 322.21
  C 210.52 317.00 186.84 296.16 180.48 267.46
  C 180.35 266.89 180.01 266.66 179.44 266.76
  L 172.34 267.97
  C 172.03 268.02 171.89 268.20 171.92 268.50
  C 175.15 305.24 203.90 327.88 238.16 334.75
  C 238.68 334.85 238.91 335.46 238.59 335.88
  C 223.87 355.18 226.76 381.07 246.61 395.52
  C 247.21 395.95 248.06 395.73 248.36 395.05
  C 251.00 389.25 254.98 383.19 260.31 379.62
  C 272.54 371.42 287.95 372.49 299.14 381.87
  C 307.03 388.50 310.98 397.64 310.99 409.29
  C 310.99 410.02 310.52 410.66 309.82 410.88
  C 255.15 428.40 196.35 421.68 147.12 392.37
  C 122.46 377.68 101.47 354.91 85.44 330.87
  C 84.84 329.97 84.98 328.77 85.78 328.03
  C 102.17 312.88 112.94 294.30 118.09 272.29
  C 119.01 268.37 120.38 260.44 122.19 248.50
  C 128.33 208.09 154.52 169.75 194.25 155.87
  C 195.88 155.30 196.16 155.70 195.09 157.05
  C 186.45 167.97 181.08 180.92 180.98 194.75
  C 180.95 199.05 185.03 206.50 190.08 201.60
  C 192.55 199.20 193.52 196.26 193.99 192.50
  C 196.09 175.56 207.03 157.93 222.99 150.73
  C 232.66 146.37 244.55 145.26 255.09 147.19
  C 268.98 149.74 280.61 156.85 289.98 168.54
  C 291.78 170.79 293.14 172.98 294.07 175.11
  Z
  M 337.6357 235.3204
  C 339.34 232.95 338.57 229.48 335.9069 227.5641
  C 333.25 225.65 329.71 226.03 328.0043 228.3996
  C 326.30 230.77 327.07 234.24 329.7331 236.1559
  C 332.39 238.07 335.93 237.69 337.6357 235.3204
  Z"
/>
<path fill="#ffffff" d="
  M 271.98 180.08
  C 272.04 180.55 271.71 180.95 271.00 181.30
  C 269.95 181.81 267.83 182.44 264.64 183.17
  C 264.33 183.24 264.08 183.14 263.91 182.87
  C 259.10 175.42 252.85 172.13 245.15 173.00
  C 216.83 176.18 222.44 217.77 249.15 215.17
  C 259.17 214.19 267.61 205.07 267.56 194.89
  C 267.55 194.48 267.79 194.11 268.15 193.95
  C 271.23 192.53 273.73 192.27 275.65 193.18
  C 276.35 204.35 272.41 212.99 263.83 219.11
  C 241.92 234.73 213.34 216.35 217.33 189.92
  C 221.72 160.85 257.84 154.33 271.98 180.08
  Z"
/>
<ellipse fill="#ffffff" cx="0.00" cy="0.00" transform="translate(252.58,187.19) rotate(75.8)" rx="9.45" ry="8.90"/>
<path fill="#0b1922" d="
  M 304.28 362.64
  C 287.81 352.35 264.15 352.56 248.80 364.73
  C 248.42 365.03 248.13 364.96 247.92 364.53
  C 247.52 363.68 247.45 362.49 247.71 360.98
  C 249.24 352.05 253.66 345.76 260.97 342.11
  C 262.46 341.36 264.22 340.99 266.27 341.00
  C 274.76 341.01 283.25 341.01 291.74 341.00
  C 300.80 340.99 307.45 340.62 311.69 339.91
  C 320.21 338.47 327.80 335.74 334.47 331.71
  C 347.67 323.73 359.97 309.00 360.91 292.74
  C 360.98 291.45 361.03 288.63 361.06 284.29
  C 361.07 283.94 361.21 283.67 361.48 283.46
  C 380.83 268.82 383.57 233.32 371.05 214.41
  C 370.80 214.04 371.12 213.55 371.56 213.62
  L 433.74 223.80
  C 434.15 223.87 434.36 224.10 434.39 224.51
  C 437.94 280.35 416.69 335.91 375.02 373.40
  C 361.47 385.60 347.20 395.30 330.30 402.05
  C 329.79 402.25 329.23 401.93 329.14 401.39
  C 326.43 384.23 318.14 371.31 304.28 362.64
  Z"
/>
<ellipse fill="#ffffff" cx="0.00" cy="0.00" transform="translate(332.82,231.86) rotate(35.7)" rx="5.93" ry="5.29"/>
</svg>
